<svg xmlns="http://www.w3.org/2000/svg" fill="none" viewBox="0 0 24 24"><path fill="#F0F1F2" fill-rule="evenodd" d="M12.69 3.092a1.304 1.304 0 0 0-1.381 0 8.54 8.54 0 0 0-3.944 8.336l-1.608 1.608a1 1 0 0 0-.277.528l-.972 5.347a.5.5 0 0 0 .846.443L9.207 15.5H11.5V18h1v-2.5h2.293l3.854 3.854a.5.5 0 0 0 .845-.443l-.972-5.347a1 1 0 0 0-.277-.528l-1.609-1.61a8.54 8.54 0 0 0-3.943-8.334zm3.706 9.511a8.603 8.603 0 0 1-.236.727l-.579 1.544 2.64 2.64-.685-3.77-1.14-1.14zM12.5 14.5h2.153l.57-1.521a7.538 7.538 0 0 0-3.062-9.039.304.304 0 0 0-.322 0 7.538 7.538 0 0 0-3.063 9.039l.57 1.521H11.5V12h1v2.5zm-4.081.374l-.58-1.544a8.594 8.594 0 0 1-.236-.726l-1.139 1.14-.686 3.77 2.64-2.64zM12.5 8a.5.5 0 1 1-1 0 .5.5 0 0 1 1 0zm1 0a1.5 1.5 0 1 1-3 0 1.5 1.5 0 0 1 3 0zm0 8.5V20h1v-3.5h-1zm-4 3.5v-3.5h1V20h-1z" clip-rule="evenodd"/></svg>
